HIERARCHY
ROOT joint_Root
{
	OFFSET 0.0 0.0 0.0
	CHANNELS 6 Xposition Yposition Zposition Zrotation Xrotation Yrotation 
	JOINT Hips
	{
		OFFSET 4.5925 91.4895 -427.239
		CHANNELS 6 Xposition Yposition Zposition Zrotation Xrotation Yrotation 
		JOINT Spine
		{
			OFFSET 15.7357 0.0 0.0
			CHANNELS 6 Xposition Yposition Zposition Zrotation Xrotation Yrotation 
			JOINT Chest
			{
				OFFSET 8.98455 -0.406207 0.0
				CHANNELS 6 Xposition Yposition Zposition Zrotation Xrotation Yrotation 
				JOINT Neck
				{
					OFFSET 16.3773 0.0 0.0
					CHANNELS 6 Xposition Yposition Zposition Zrotation Xrotation Yrotation 
					JOINT Head
					{
						OFFSET 6.45672 0.0 0.0
						CHANNELS 6 Xposition Yposition Zposition Zrotation Xrotation Yrotation 
						End Site
						{
							OFFSET 0.0 0.0 0.0
						}
					}
				}
				JOINT Shoulder_L
				{
					OFFSET 12.9942 -0.242716 4.98039
					CHANNELS 6 Xposition Yposition Zposition Zrotation Xrotation Yrotation 
					JOINT UpperArm_L
					{
						OFFSET 5.34809 0.0 0.0
						CHANNELS 6 Xposition Yposition Zposition Zrotation Xrotation Yrotation 
						JOINT LowerArm_L
						{
							OFFSET 24.3286 1.87007e-05 0.0
							CHANNELS 6 Xposition Yposition Zposition Zrotation Xrotation Yrotation 
							JOINT Hand_L
							{
								OFFSET 22.2916 0.0 0.0
								CHANNELS 6 Xposition Yposition Zposition Zrotation Xrotation Yrotation 
								End Site
								{
									OFFSET 0.0 0.0 0.0
								}
							}
						}
					}
				}
				JOINT Shoulder_R
				{
					OFFSET 12.9945 -0.242716 -4.98039
					CHANNELS 6 Xposition Yposition Zposition Zrotation Xrotation Yrotation 
					JOINT UpperArm_R
					{
						OFFSET -5.34813 0.0 0.0
						CHANNELS 6 Xposition Yposition Zposition Zrotation Xrotation Yrotation 
						JOINT LowerArm_R
						{
							OFFSET -24.3289 0.000322201 0.0
							CHANNELS 6 Xposition Yposition Zposition Zrotation Xrotation Yrotation 
							JOINT Hand_R
							{
								OFFSET -22.2915 -0.000108084 0.0
								CHANNELS 6 Xposition Yposition Zposition Zrotation Xrotation Yrotation 
								End Site
								{
									OFFSET 0.0 0.0 0.0
								}
							}
						}
					}
				}
			}
		}
		JOINT UpperLeg_L
		{
			OFFSET -2.19248 -6.46944 0.0
			CHANNELS 6 Xposition Yposition Zposition Zrotation Xrotation Yrotation 
			JOINT LowerLeg_L
			{
				OFFSET 39.0811 0.0 -1.23785e-05
				CHANNELS 6 Xposition Yposition Zposition Zrotation Xrotation Yrotation 
				JOINT Foot_L
				{
					OFFSET 40.9854 0.0 -1.26872e-05
					CHANNELS 6 Xposition Yposition Zposition Zrotation Xrotation Yrotation 
					JOINT Toes_L
					{
						OFFSET 11.7543 0.0 0.0
						CHANNELS 6 Xposition Yposition Zposition Zrotation Xrotation Yrotation 
						End Site
						{
							OFFSET 0.0 0.0 0.0
						}
					}
				}
			}
		}
		JOINT UpperLeg_R
		{
			OFFSET -2.19251 6.46944 0.0
			CHANNELS 6 Xposition Yposition Zposition Zrotation Xrotation Yrotation 
			JOINT LowerLeg_R
			{
				OFFSET -39.0811 -0.00228153 -0.0401928
				CHANNELS 6 Xposition Yposition Zposition Zrotation Xrotation Yrotation 
				JOINT Foot_R
				{
					OFFSET -40.9854 0.0 0.0
					CHANNELS 6 Xposition Yposition Zposition Zrotation Xrotation Yrotation 
					JOINT Toes_R
					{
						OFFSET -11.7543 0.0 0.0
						CHANNELS 6 Xposition Yposition Zposition Zrotation Xrotation Yrotation 
						End Site
						{
							OFFSET 0.0 0.0 0.0
						}
					}
				}
			}
		}
	}
}
MOTION
Frames:	6
Frame Time:	0.0333333
0.000000 0.000000 0.000000 0.000000 0.000000 -0.000000 -0.509903 90.397300 -4.723000 89.008000 -3.025640 10.671800 15.735700 0.000005 -0.000001 88.244400 76.791000 -88.429400 8.984550 -0.406207 -0.000000 18.639600 -0.810975 -0.237776 16.377300 -0.000001 -0.000001 2.139900 -4.317940 2.563790 6.456720 -0.000001 -0.000000 -8.184550 -3.188990 0.632790 12.994200 -0.242716 4.980390 -91.319200 5.862810 -77.295300 5.348090 -0.000007 -0.000001 -55.177700 34.126100 -29.610600 24.328600 0.000019 0.000005 9.057060 19.221000 -25.835500 22.291600 -0.000001 0.000005 11.599800 5.233810 1.856070 12.994500 -0.242716 -4.980390 89.175500 9.909410 -85.219900 -5.348130 -0.000001 -0.000004 -55.332200 31.583900 -24.696400 -24.328900 0.000322 -0.000009 2.488690 4.530980 -28.827400 -22.291500 -0.000108 -0.000004 15.247500 5.427490 -3.853230 -2.192480 -6.469440 -0.000000 -174.706000 -10.688400 -4.452060 39.081100 -0.000007 -0.000012 -0.190769 0.278508 34.410200 40.985400 -0.000006 -0.000013 0.226032 4.458860 -69.154400 11.754300 -0.000000 0.000003 -0.000088 -0.000918 -16.612900 -2.192510 6.469440 -0.000001 175.962000 18.579200 176.743000 -39.081100 -0.002282 -0.040193 -0.128302 0.198296 33.569700 -40.985400 0.000008 0.000006 4.635120 10.829400 -69.758600 -11.754300 -0.000006 -0.000006 -0.003451 -0.045606 -18.428000
0.000000 0.000000 0.000000 0.000000 0.000000 -0.000000 -0.489134 90.402500 -4.741080 89.006700 -2.956320 10.681100 15.735700 0.000005 -0.000001 88.213800 76.777000 -88.385700 8.984550 -0.406207 -0.000000 18.667200 -0.824409 -0.209253 16.377300 -0.000001 -0.000001 2.135700 -4.280420 2.570300 6.456720 -0.000001 -0.000000 -8.215090 -3.049280 0.520432 12.994200 -0.242716 4.980390 -91.326700 5.845820 -77.189900 5.348090 -0.000007 -0.000001 -55.269000 33.251400 -29.327500 24.328600 0.000019 0.000005 10.029300 19.862300 -27.497800 22.291600 -0.000001 0.000005 11.992500 5.222850 2.139730 12.994500 -0.242716 -4.980390 89.140000 9.901520 -85.010800 -5.348130 -0.000001 -0.000004 -55.392500 30.801100 -24.480700 -24.328900 0.000322 -0.000009 2.878940 4.884670 -30.574100 -22.291500 -0.000108 -0.000004 15.640500 5.428770 -3.896770 -2.192480 -6.469440 -0.000000 -174.730000 -10.666800 -4.461330 39.081100 -0.000007 -0.000012 -0.185093 0.270376 34.394900 40.985400 -0.000006 -0.000013 0.260615 4.507650 -69.129300 11.754300 -0.000000 0.000003 -0.000089 -0.000927 -16.613200 -2.192510 6.469440 -0.000001 175.930000 18.609700 176.763000 -39.081100 -0.002282 -0.040193 -0.131409 0.203187 33.542600 -40.985400 0.000008 0.000006 4.600190 10.808200 -69.729800 -11.754300 -0.000006 -0.000006 -0.003532 -0.046483 -18.463700
0.000000 0.000000 0.000000 0.000000 0.000000 -0.000000 -0.468673 90.411300 -4.758240 89.021100 -2.907330 10.667200 15.735700 0.000005 -0.000001 88.282600 76.751500 -88.450000 8.984550 -0.406207 -0.000000 18.719200 -0.794359 -0.204742 16.377300 -0.000001 -0.000001 2.117730 -4.234160 2.536740 6.456720 -0.000001 -0.000000 -8.336820 -3.021130 0.526302 12.994200 -0.242716 4.980390 -91.327200 5.816220 -77.121900 5.348090 -0.000007 -0.000001 -55.269200 32.152000 -29.182800 24.328600 0.000019 0.000005 11.268100 20.472300 -29.667600 22.291600 -0.000001 0.000005 12.289800 5.214910 2.342740 12.994500 -0.242716 -4.980390 89.108100 9.896700 -84.824600 -5.348130 -0.000001 -0.000004 -55.284600 29.950900 -24.399200 -24.328900 0.000322 -0.000009 3.493980 5.445210 -32.762800 -22.291500 -0.000108 -0.000004 16.159700 5.429040 -3.906590 -2.192480 -6.469440 -0.000000 -174.756000 -10.704300 -4.475080 39.081100 -0.000007 -0.000012 -0.188273 0.275455 34.352800 40.985400 -0.000006 -0.000013 0.292259 4.558530 -69.091700 11.754300 -0.000000 0.000003 -0.000089 -0.000927 -16.613200 -2.192510 6.469440 -0.000001 175.917000 18.678000 176.745000 -39.081100 -0.002282 -0.040193 -0.124300 0.192592 33.525100 -40.985400 0.000008 0.000006 4.681490 10.801400 -69.723800 -11.754300 -0.000006 -0.000006 -0.003547 -0.046644 -18.470300
0.000000 0.000000 0.000000 0.000000 0.000000 -0.000000 -0.443425 90.415700 -4.796150 89.031900 -2.797000 10.682100 15.735700 0.000005 -0.000001 88.253900 76.730700 -88.417900 8.984550 -0.406207 -0.000000 18.760400 -0.808263 -0.195347 16.377300 -0.000001 -0.000001 2.156740 -4.218810 2.563300 6.456720 -0.000001 -0.000000 -8.533840 -2.966050 0.503089 12.994200 -0.242716 4.980390 -91.328800 5.755610 -76.976400 5.348090 -0.000007 -0.000001 -55.538900 30.651200 -28.960100 24.328600 0.000019 0.000005 12.760200 20.971800 -32.322100 22.291600 -0.000001 0.000005 12.570500 5.207630 2.526740 12.994500 -0.242716 -4.980390 89.079000 9.867460 -84.641100 -5.348130 -0.000001 -0.000004 -55.079100 29.105100 -24.384300 -24.328900 0.000322 -0.000009 4.311790 6.103770 -35.343500 -22.291500 -0.000108 -0.000004 16.766900 5.427970 -3.869760 -2.192480 -6.469440 -0.000000 -174.796000 -10.646200 -4.495200 39.081100 -0.000007 -0.000012 -0.186660 0.273265 34.336200 40.985400 -0.000006 -0.000013 0.326737 4.612340 -69.052700 11.754300 -0.000000 0.000003 -0.000091 -0.000946 -16.613900 -2.192510 6.469440 -0.000001 175.866000 18.755600 176.755000 -39.081100 -0.002282 -0.040193 -0.125964 0.195253 33.504800 -40.985400 0.000008 0.000006 4.607570 10.806300 -69.676200 -11.754300 -0.000006 -0.000006 -0.003422 -0.045285 -18.414900
0.000000 0.000000 0.000000 0.000000 0.000000 -0.000000 -0.422815 90.417500 -4.830660 89.025300 -2.727440 10.667500 15.735700 0.000005 -0.000001 88.309600 76.719200 -88.471900 8.984550 -0.406207 -0.000000 18.784200 -0.783480 -0.195741 16.377300 -0.000001 -0.000001 2.183440 -4.214240 2.575460 6.456720 -0.000001 -0.000000 -8.696730 -2.945350 0.533240 12.994200 -0.242716 4.980390 -91.330200 5.705630 -76.853700 5.348090 -0.000007 -0.000001 -55.748000 28.958400 -28.835000 24.328600 0.000019 0.000005 14.521000 21.356000 -35.420500 22.291600 -0.000001 0.000005 13.045700 5.196540 2.805130 12.994500 -0.242716 -4.980390 89.052400 9.818270 -84.459900 -5.348130 -0.000001 -0.000004 -54.885400 28.099000 -24.489600 -24.328900 0.000322 -0.000009 5.508740 7.046060 -38.176600 -22.291500 -0.000108 -0.000004 17.469700 5.431430 -3.988120 -2.192480 -6.469440 -0.000000 -174.832000 -10.605100 -4.549560 39.081100 -0.000007 -0.000012 -0.182414 0.266975 34.343600 40.985400 -0.000006 -0.000013 0.352569 4.610670 -69.030200 11.754300 -0.000000 0.000003 -0.000081 -0.000860 -16.610700 -2.192510 6.469440 -0.000001 175.850000 18.815100 176.732000 -39.081100 -0.002282 -0.040193 -0.127364 0.197489 33.488700 -40.985400 0.000008 0.000006 4.539800 10.823000 -69.632500 -11.754300 -0.000006 -0.000006 -0.003352 -0.044522 -18.383900
0.000000 0.000000 0.000000 0.000000 0.000000 -0.000000 -0.400722 90.423000 -4.864810 89.019400 -2.640270 10.662700 15.735700 0.000005 -0.000001 88.340900 76.715500 -88.497900 8.984550 -0.406207 -0.000000 18.791900 -0.768988 -0.187582 16.377300 -0.000001 -0.000001 2.285360 -4.217660 2.616370 6.456720 -0.000001 -0.000000 -8.888090 -2.931410 0.501501 12.994200 -0.242716 4.980390 -91.327700 5.633960 -76.717200 5.348090 -0.000007 -0.000001 -56.047600 27.074700 -28.811500 24.328600 0.000019 0.000005 16.863200 22.016300 -38.957800 22.291600 -0.000001 0.000005 13.635900 5.180240 3.209500 12.994500 -0.242716 -4.980390 89.035200 9.705630 -84.295400 -5.348130 -0.000001 -0.000004 -54.823000 26.873800 -24.637500 -24.328900 0.000322 -0.000009 6.891700 7.923440 -41.245700 -22.291500 -0.000108 -0.000004 18.110400 5.433560 -4.061560 -2.192480 -6.469440 -0.000000 -174.844000 -10.581900 -4.592140 39.081100 -0.000007 -0.000012 -0.183498 0.268690 34.330900 40.985400 -0.000006 -0.000013 0.385939 4.682500 -68.988100 11.754300 -0.000000 0.000003 -0.000079 -0.000842 -16.610000 -2.192510 6.469440 -0.000001 175.836000 18.893300 176.723000 -39.081100 -0.002282 -0.040193 -0.125084 0.194177 33.470300 -40.985400 0.000008 0.000006 4.578470 10.826900 -69.612800 -11.754300 -0.000006 -0.000006 -0.003394 -0.044986 -18.402800
